<?xml version="1.0" standalone="no"?>
<!DOCTYPE svg PUBLIC "-//W3C//DTD SVG 20010904//EN"
 "http://www.w3.org/TR/2001/REC-SVG-20010904/DTD/svg10.dtd">
<svg version="1.0" xmlns="http://www.w3.org/2000/svg"
 width="388.000000pt" height="388.000000pt" viewBox="0 0 388.000000 388.000000"
 preserveAspectRatio="xMidYMid meet">
<metadata>
Created by potrace 1.14, written by Peter Selinger 2001-2017
</metadata>
<g transform="translate(0.000000,388.000000) scale(0.100000,-0.100000)"
fill="#000000" stroke="none">
<path d="M0 1940 l0 -1940 1940 0 1940 0 0 1940 0 1940 -1940 0 -1940 0 0
-1940z m3740 -15 l0 -1765 -1800 0 -1800 0 0 1765 0 1765 1800 0 1800 0 0
-1765z"/>
<path d="M2240 2735 l0 -125 125 0 125 0 0 125 0 125 -125 0 -125 0 0 -125z"/>
<path d="M240 2451 l0 -130 38 -3 37 -3 0 -440 0 -440 -37 -3 -38 -3 0 -130 0
-131 343 4 c364 5 403 10 504 60 58 29 135 107 164 165 33 67 35 225 3 294
-25 54 -83 112 -127 129 -55 20 -62 26 -62 56 0 25 7 32 55 55 61 29 114 83
137 138 9 20 18 70 20 111 7 98 -14 171 -67 239 -50 63 -97 95 -191 129 -74
26 -76 26 -426 30 l-353 4 0 -131z m738 -288 l3 -143 -181 0 -180 0 0 145 0
145 178 -2 177 -3 3 -142z m2 -573 l0 -140 -180 0 -180 0 0 140 0 140 180 0
180 0 0 -140z"/>
<path d="M1657 2573 c-4 -3 -7 -62 -7 -129 l0 -123 138 -3 137 -3 0 -440 0
-440 -138 -3 -138 -3 3 -127 3 -127 418 -3 417 -2 0 130 0 130 -128 0 c-86 0
-132 4 -140 12 -9 9 -12 150 -12 575 l0 563 -273 0 c-151 0 -277 -3 -280 -7z"/>
<path d="M2680 2450 l0 -130 203 -2 202 -3 3 -572 2 -573 140 0 140 0 2 573 3
572 113 3 112 3 0 129 0 130 -460 0 -460 0 0 -130z"/>
</g>
</svg>
