<svg width="176" height="12" viewBox="0 0 176 12" fill="none" xmlns="http://www.w3.org/2000/svg">
<path d="M4.4 9.033C3.68133 9.033 3.025 8.86067 2.431 8.516C1.84433 8.17133 1.37867 7.702 1.034 7.108C0.696667 6.514 0.528 5.86133 0.528 5.15C0.528 4.43867 0.696667 3.786 1.034 3.192C1.37867 2.598 1.848 2.12867 2.442 1.784C3.036 1.43933 3.696 1.267 4.422 1.267C5.148 1.267 5.80433 1.43567 6.391 1.773C6.985 2.11033 7.45067 2.576 7.788 3.17C8.12533 3.75667 8.294 4.40933 8.294 5.128C8.294 5.84667 8.12167 6.50667 7.777 7.108C7.43233 7.702 6.963 8.17133 6.369 8.516C5.775 8.86067 5.11867 9.033 4.4 9.033ZM4.4 8.538C5.03067 8.538 5.60267 8.38767 6.116 8.087C6.62933 7.78633 7.03267 7.37567 7.326 6.855C7.62667 6.33433 7.777 5.75867 7.777 5.128C7.777 4.49733 7.63033 3.92533 7.337 3.412C7.051 2.89867 6.65133 2.49533 6.138 2.202C5.632 1.90867 5.06 1.762 4.422 1.762C3.79133 1.762 3.21567 1.91233 2.695 2.213C2.18167 2.51367 1.77833 2.92433 1.485 3.445C1.19167 3.95833 1.045 4.52667 1.045 5.15C1.045 5.77333 1.19167 6.34533 1.485 6.866C1.77833 7.37933 2.18167 7.78633 2.695 8.087C3.20833 8.38767 3.77667 8.538 4.4 8.538ZM4.521 7.416C4.07367 7.416 3.674 7.32067 3.322 7.13C2.97 6.93933 2.695 6.67167 2.497 6.327C2.299 5.98233 2.2 5.59 2.2 5.15C2.2 4.71 2.299 4.31767 2.497 3.973C2.695 3.62833 2.97 3.36067 3.322 3.17C3.674 2.97933 4.07367 2.884 4.521 2.884C4.90233 2.884 5.25067 2.96467 5.566 3.126C5.88133 3.28733 6.127 3.50367 6.303 3.775L5.676 4.226C5.412 3.83 5.02333 3.632 4.51 3.632C4.08467 3.632 3.73267 3.77133 3.454 4.05C3.17533 4.32867 3.036 4.69533 3.036 5.15C3.036 5.60467 3.17533 5.97133 3.454 6.25C3.73267 6.52867 4.08467 6.668 4.51 6.668C5.02333 6.668 5.412 6.47 5.676 6.074L6.303 6.514C6.127 6.79267 5.88133 7.01267 5.566 7.174C5.25067 7.33533 4.90233 7.416 4.521 7.416ZM18.1094 5.007C18.5568 5.13167 18.9088 5.359 19.1654 5.689C19.4221 6.01167 19.5504 6.42233 19.5504 6.921C19.5504 7.58833 19.2974 8.10167 18.7914 8.461C18.2928 8.82033 17.5631 9 16.6024 9H12.9284V1.3H16.3824C17.2624 1.3 17.9408 1.476 18.4174 1.828C18.9014 2.18 19.1434 2.66767 19.1434 3.291C19.1434 3.69433 19.0481 4.04267 18.8574 4.336C18.6741 4.62933 18.4248 4.853 18.1094 5.007ZM14.0284 2.191V4.655H16.2834C16.8481 4.655 17.2808 4.55233 17.5814 4.347C17.8894 4.13433 18.0434 3.82633 18.0434 3.423C18.0434 3.01967 17.8894 2.71533 17.5814 2.51C17.2808 2.29733 16.8481 2.191 16.2834 2.191H14.0284ZM16.5584 8.109C17.1818 8.109 17.6511 8.00633 17.9664 7.801C18.2818 7.59567 18.4394 7.273 18.4394 6.833C18.4394 5.975 17.8124 5.546 16.5584 5.546H14.0284V8.109H16.5584ZM23.2226 3.115C24.0293 3.115 24.6453 3.313 25.0706 3.709C25.5033 4.105 25.7196 4.69533 25.7196 5.48V9H24.7186V8.23C24.5426 8.50133 24.2896 8.71033 23.9596 8.857C23.637 8.99633 23.252 9.066 22.8046 9.066C22.152 9.066 21.6276 8.90833 21.2316 8.593C20.843 8.27767 20.6486 7.86333 20.6486 7.35C20.6486 6.83667 20.8356 6.426 21.2096 6.118C21.5836 5.80267 22.1776 5.645 22.9916 5.645H24.6636V5.436C24.6636 4.98133 24.5316 4.633 24.2676 4.391C24.0036 4.149 23.615 4.028 23.1016 4.028C22.757 4.028 22.4196 4.08667 22.0896 4.204C21.7596 4.314 21.481 4.46433 21.2536 4.655L20.8136 3.863C21.1143 3.621 21.4736 3.43767 21.8916 3.313C22.3096 3.181 22.7533 3.115 23.2226 3.115ZM22.9806 8.252C23.384 8.252 23.7323 8.164 24.0256 7.988C24.319 7.80467 24.5316 7.548 24.6636 7.218V6.404H23.0356C22.141 6.404 21.6936 6.70467 21.6936 7.306C21.6936 7.59933 21.8073 7.83033 22.0346 7.999C22.262 8.16767 22.5773 8.252 22.9806 8.252ZM27.6739 0.838H28.7299V9H27.6739V0.838ZM34.1638 8.659C34.0098 8.791 33.8191 8.89367 33.5918 8.967C33.3644 9.033 33.1298 9.066 32.8878 9.066C32.3011 9.066 31.8464 8.90833 31.5238 8.593C31.2011 8.27767 31.0398 7.82667 31.0398 7.24V4.039H30.0498V3.17H31.0398V1.894H32.0958V3.17H33.7678V4.039H32.0958V7.196C32.0958 7.51133 32.1728 7.75333 32.3268 7.922C32.4881 8.09067 32.7154 8.175 33.0088 8.175C33.3314 8.175 33.6064 8.08333 33.8338 7.9L34.1638 8.659ZM35.4405 3.17H36.4965V9H35.4405V3.17ZM35.9685 2.048C35.7631 2.048 35.5908 1.982 35.4515 1.85C35.3195 1.718 35.2535 1.55667 35.2535 1.366C35.2535 1.17533 35.3195 1.014 35.4515 0.882C35.5908 0.742666 35.7631 0.673 35.9685 0.673C36.1738 0.673 36.3425 0.739 36.4745 0.871C36.6138 0.995666 36.6835 1.15333 36.6835 1.344C36.6835 1.542 36.6138 1.71067 36.4745 1.85C36.3425 1.982 36.1738 2.048 35.9685 2.048ZM41.0537 9.066C40.4597 9.066 39.9281 8.93767 39.4587 8.681C38.9967 8.42433 38.6337 8.07233 38.3697 7.625C38.1057 7.17033 37.9737 6.657 37.9737 6.085C37.9737 5.513 38.1057 5.00333 38.3697 4.556C38.6337 4.10133 38.9967 3.74933 39.4587 3.5C39.9281 3.24333 40.4597 3.115 41.0537 3.115C41.5817 3.115 42.0511 3.22133 42.4617 3.434C42.8797 3.64667 43.2024 3.95467 43.4297 4.358L42.6267 4.875C42.4434 4.59633 42.2161 4.38733 41.9447 4.248C41.6734 4.10867 41.3727 4.039 41.0427 4.039C40.6614 4.039 40.3167 4.12333 40.0087 4.292C39.7081 4.46067 39.4697 4.70267 39.2937 5.018C39.1251 5.326 39.0407 5.68167 39.0407 6.085C39.0407 6.49567 39.1251 6.85867 39.2937 7.174C39.4697 7.482 39.7081 7.72033 40.0087 7.889C40.3167 8.05767 40.6614 8.142 41.0427 8.142C41.3727 8.142 41.6734 8.07233 41.9447 7.933C42.2161 7.79367 42.4434 7.58467 42.6267 7.306L43.4297 7.812C43.2024 8.21533 42.8797 8.527 42.4617 8.747C42.0511 8.95967 41.5817 9.066 41.0537 9.066ZM47.905 1.3H49.005V9H47.905V1.3ZM54.2693 3.115C55.0099 3.115 55.5966 3.33133 56.0293 3.764C56.4693 4.18933 56.6893 4.81633 56.6893 5.645V9H55.6333V5.766C55.6333 5.20133 55.4976 4.776 55.2263 4.49C54.9549 4.204 54.5663 4.061 54.0603 4.061C53.4883 4.061 53.0373 4.22967 52.7073 4.567C52.3773 4.897 52.2123 5.37367 52.2123 5.997V9H51.1563V3.17H52.1683V4.05C52.3809 3.74933 52.6669 3.51833 53.0263 3.357C53.3929 3.19567 53.8073 3.115 54.2693 3.115ZM60.3156 9.066C59.8389 9.066 59.3806 9.00367 58.9406 8.879C58.5006 8.747 58.1559 8.582 57.9066 8.384L58.3466 7.548C58.6032 7.73133 58.9149 7.878 59.2816 7.988C59.6482 8.098 60.0186 8.153 60.3926 8.153C61.3166 8.153 61.7786 7.889 61.7786 7.361C61.7786 7.185 61.7162 7.04567 61.5916 6.943C61.4669 6.84033 61.3092 6.767 61.1186 6.723C60.9352 6.67167 60.6712 6.61667 60.3266 6.558C59.8572 6.48467 59.4722 6.40033 59.1716 6.305C58.8782 6.20967 58.6252 6.04833 58.4126 5.821C58.1999 5.59367 58.0936 5.27467 58.0936 4.864C58.0936 4.336 58.3136 3.91433 58.7536 3.599C59.1936 3.27633 59.7839 3.115 60.5246 3.115C60.9132 3.115 61.3019 3.16267 61.6906 3.258C62.0792 3.35333 62.3982 3.48167 62.6476 3.643L62.1966 4.479C61.7199 4.171 61.1589 4.017 60.5136 4.017C60.0662 4.017 59.7252 4.09033 59.4906 4.237C59.2559 4.38367 59.1386 4.578 59.1386 4.82C59.1386 5.01067 59.2046 5.161 59.3366 5.271C59.4686 5.381 59.6299 5.46167 59.8206 5.513C60.0186 5.56433 60.2936 5.623 60.6456 5.689C61.1149 5.76967 61.4926 5.85767 61.7786 5.953C62.0719 6.041 62.3212 6.195 62.5266 6.415C62.7319 6.635 62.8346 6.943 62.8346 7.339C62.8346 7.867 62.6072 8.28867 62.1526 8.604C61.7052 8.912 61.0929 9.066 60.3156 9.066ZM67.4323 8.659C67.2783 8.791 67.0877 8.89367 66.8603 8.967C66.633 9.033 66.3983 9.066 66.1563 9.066C65.5697 9.066 65.115 8.90833 64.7923 8.593C64.4697 8.27767 64.3083 7.82667 64.3083 7.24V4.039H63.3183V3.17H64.3083V1.894H65.3643V3.17H67.0363V4.039H65.3643V7.196C65.3643 7.51133 65.4413 7.75333 65.5953 7.922C65.7567 8.09067 65.984 8.175 66.2773 8.175C66.6 8.175 66.875 8.08333 67.1023 7.9L67.4323 8.659ZM68.709 3.17H69.765V9H68.709V3.17ZM69.237 2.048C69.0317 2.048 68.8593 1.982 68.72 1.85C68.588 1.718 68.522 1.55667 68.522 1.366C68.522 1.17533 68.588 1.014 68.72 0.882C68.8593 0.742666 69.0317 0.673 69.237 0.673C69.4423 0.673 69.611 0.739 69.743 0.871C69.8823 0.995666 69.952 1.15333 69.952 1.344C69.952 1.542 69.8823 1.71067 69.743 1.85C69.611 1.982 69.4423 2.048 69.237 2.048ZM75.0593 8.659C74.9053 8.791 74.7146 8.89367 74.4873 8.967C74.2599 9.033 74.0253 9.066 73.7833 9.066C73.1966 9.066 72.7419 8.90833 72.4193 8.593C72.0966 8.27767 71.9353 7.82667 71.9353 7.24V4.039H70.9453V3.17H71.9353V1.894H72.9913V3.17H74.6633V4.039H72.9913V7.196C72.9913 7.51133 73.0683 7.75333 73.2223 7.922C73.3836 8.09067 73.6109 8.175 73.9043 8.175C74.2269 8.175 74.5019 8.08333 74.7293 7.9L75.0593 8.659ZM81.77 3.17V9H80.769V8.12C80.5563 8.42067 80.274 8.65533 79.922 8.824C79.5773 8.98533 79.1996 9.066 78.789 9.066C78.0116 9.066 77.3993 8.85333 76.952 8.428C76.5046 7.99533 76.281 7.361 76.281 6.525V3.17H77.337V6.404C77.337 6.96867 77.4726 7.39767 77.744 7.691C78.0153 7.977 78.404 8.12 78.91 8.12C79.4673 8.12 79.9073 7.95133 80.23 7.614C80.5526 7.27667 80.714 6.8 80.714 6.184V3.17H81.77ZM87.0583 8.659C86.9043 8.791 86.7136 8.89367 86.4863 8.967C86.259 9.033 86.0243 9.066 85.7823 9.066C85.1956 9.066 84.741 8.90833 84.4183 8.593C84.0956 8.27767 83.9343 7.82667 83.9343 7.24V4.039H82.9443V3.17H83.9343V1.894H84.9903V3.17H86.6623V4.039H84.9903V7.196C84.9903 7.51133 85.0673 7.75333 85.2213 7.922C85.3826 8.09067 85.61 8.175 85.9033 8.175C86.226 8.175 86.501 8.08333 86.7283 7.9L87.0583 8.659ZM93.4106 6.118C93.4106 6.19867 93.4033 6.305 93.3886 6.437H88.6586C88.7246 6.95033 88.9483 7.36467 89.3296 7.68C89.7183 7.988 90.1986 8.142 90.7706 8.142C91.4673 8.142 92.0283 7.90733 92.4536 7.438L93.0366 8.12C92.7726 8.428 92.4426 8.66267 92.0466 8.824C91.658 8.98533 91.2216 9.066 90.7376 9.066C90.1216 9.066 89.5753 8.94133 89.0986 8.692C88.622 8.43533 88.2516 8.07967 87.9876 7.625C87.731 7.17033 87.6026 6.657 87.6026 6.085C87.6026 5.52033 87.7273 5.01067 87.9766 4.556C88.2333 4.10133 88.5816 3.74933 89.0216 3.5C89.469 3.24333 89.9713 3.115 90.5286 3.115C91.086 3.115 91.581 3.24333 92.0136 3.5C92.4536 3.74933 92.7946 4.10133 93.0366 4.556C93.286 5.01067 93.4106 5.53133 93.4106 6.118ZM90.5286 4.006C90.0226 4.006 89.5973 4.16 89.2526 4.468C88.9153 4.776 88.7173 5.17933 88.6586 5.678H92.3986C92.34 5.18667 92.1383 4.787 91.7936 4.479C91.4563 4.16367 91.0346 4.006 90.5286 4.006ZM100.328 9.066C99.7487 9.066 99.2281 8.93767 98.7661 8.681C98.3041 8.42433 97.9411 8.07233 97.6771 7.625C97.4204 7.17033 97.2921 6.657 97.2921 6.085C97.2921 5.513 97.4204 5.00333 97.6771 4.556C97.9411 4.10133 98.3041 3.74933 98.7661 3.5C99.2281 3.24333 99.7487 3.115 100.328 3.115C100.907 3.115 101.424 3.24333 101.879 3.5C102.341 3.74933 102.7 4.10133 102.957 4.556C103.221 5.00333 103.353 5.513 103.353 6.085C103.353 6.657 103.221 7.17033 102.957 7.625C102.7 8.07233 102.341 8.42433 101.879 8.681C101.424 8.93767 100.907 9.066 100.328 9.066ZM100.328 8.142C100.702 8.142 101.036 8.05767 101.329 7.889C101.63 7.713 101.864 7.471 102.033 7.163C102.202 6.84767 102.286 6.48833 102.286 6.085C102.286 5.68167 102.202 5.326 102.033 5.018C101.864 4.70267 101.63 4.46067 101.329 4.292C101.036 4.12333 100.702 4.039 100.328 4.039C99.9541 4.039 99.6167 4.12333 99.3161 4.292C99.0227 4.46067 98.7881 4.70267 98.6121 5.018C98.4434 5.326 98.3591 5.68167 98.3591 6.085C98.3591 6.48833 98.4434 6.84767 98.6121 7.163C98.7881 7.471 99.0227 7.713 99.3161 7.889C99.6167 8.05767 99.9541 8.142 100.328 8.142ZM106.948 1.641C106.317 1.641 106.002 1.982 106.002 2.664V3.17H107.696V4.039H106.024V9H104.968V4.039H103.978V3.17H104.968V2.653C104.968 2.07367 105.136 1.61533 105.474 1.278C105.811 0.940666 106.284 0.772 106.893 0.772C107.127 0.772 107.347 0.801333 107.553 0.86C107.758 0.918666 107.934 1.003 108.081 1.113L107.762 1.916C107.52 1.73267 107.248 1.641 106.948 1.641ZM113.329 2.257H110.689V1.3H117.058V2.257H114.418V9H113.329V2.257ZM122.769 6.118C122.769 6.19867 122.762 6.305 122.747 6.437H118.017C118.083 6.95033 118.307 7.36467 118.688 7.68C119.077 7.988 119.557 8.142 120.129 8.142C120.826 8.142 121.387 7.90733 121.812 7.438L122.395 8.12C122.131 8.428 121.801 8.66267 121.405 8.824C121.016 8.98533 120.58 9.066 120.096 9.066C119.48 9.066 118.934 8.94133 118.457 8.692C117.98 8.43533 117.61 8.07967 117.346 7.625C117.089 7.17033 116.961 6.657 116.961 6.085C116.961 5.52033 117.086 5.01067 117.335 4.556C117.592 4.10133 117.94 3.74933 118.38 3.5C118.827 3.24333 119.33 3.115 119.887 3.115C120.444 3.115 120.939 3.24333 121.372 3.5C121.812 3.74933 122.153 4.10133 122.395 4.556C122.644 5.01067 122.769 5.53133 122.769 6.118ZM119.887 4.006C119.381 4.006 118.956 4.16 118.611 4.468C118.274 4.776 118.076 5.17933 118.017 5.678H121.757C121.698 5.18667 121.497 4.787 121.152 4.479C120.815 4.16367 120.393 4.006 119.887 4.006ZM126.776 9.066C126.182 9.066 125.651 8.93767 125.181 8.681C124.719 8.42433 124.356 8.07233 124.092 7.625C123.828 7.17033 123.696 6.657 123.696 6.085C123.696 5.513 123.828 5.00333 124.092 4.556C124.356 4.10133 124.719 3.74933 125.181 3.5C125.651 3.24333 126.182 3.115 126.776 3.115C127.304 3.115 127.774 3.22133 128.184 3.434C128.602 3.64667 128.925 3.95467 129.152 4.358L128.349 4.875C128.166 4.59633 127.939 4.38733 127.667 4.248C127.396 4.10867 127.095 4.039 126.765 4.039C126.384 4.039 126.039 4.12333 125.731 4.292C125.431 4.46067 125.192 4.70267 125.016 5.018C124.848 5.326 124.763 5.68167 124.763 6.085C124.763 6.49567 124.848 6.85867 125.016 7.174C125.192 7.482 125.431 7.72033 125.731 7.889C126.039 8.05767 126.384 8.142 126.765 8.142C127.095 8.142 127.396 8.07233 127.667 7.933C127.939 7.79367 128.166 7.58467 128.349 7.306L129.152 7.812C128.925 8.21533 128.602 8.527 128.184 8.747C127.774 8.95967 127.304 9.066 126.776 9.066ZM133.557 3.115C134.298 3.115 134.885 3.33133 135.317 3.764C135.757 4.18933 135.977 4.81633 135.977 5.645V9H134.921V5.766C134.921 5.20133 134.786 4.776 134.514 4.49C134.243 4.204 133.854 4.061 133.348 4.061C132.776 4.061 132.325 4.22967 131.995 4.567C131.665 4.897 131.5 5.37367 131.5 5.997V9H130.444V0.838H131.5V3.995C131.72 3.71633 132.006 3.5 132.358 3.346C132.718 3.192 133.117 3.115 133.557 3.115ZM141.045 3.115C141.785 3.115 142.372 3.33133 142.805 3.764C143.245 4.18933 143.465 4.81633 143.465 5.645V9H142.409V5.766C142.409 5.20133 142.273 4.776 142.002 4.49C141.73 4.204 141.342 4.061 140.836 4.061C140.264 4.061 139.813 4.22967 139.483 4.567C139.153 4.897 138.988 5.37367 138.988 5.997V9H137.932V3.17H138.944V4.05C139.156 3.74933 139.442 3.51833 139.802 3.357C140.168 3.19567 140.583 3.115 141.045 3.115ZM147.948 9.066C147.369 9.066 146.848 8.93767 146.386 8.681C145.924 8.42433 145.561 8.07233 145.297 7.625C145.041 7.17033 144.912 6.657 144.912 6.085C144.912 5.513 145.041 5.00333 145.297 4.556C145.561 4.10133 145.924 3.74933 146.386 3.5C146.848 3.24333 147.369 3.115 147.948 3.115C148.528 3.115 149.045 3.24333 149.499 3.5C149.961 3.74933 150.321 4.10133 150.577 4.556C150.841 5.00333 150.973 5.513 150.973 6.085C150.973 6.657 150.841 7.17033 150.577 7.625C150.321 8.07233 149.961 8.42433 149.499 8.681C149.045 8.93767 148.528 9.066 147.948 9.066ZM147.948 8.142C148.322 8.142 148.656 8.05767 148.949 7.889C149.25 7.713 149.485 7.471 149.653 7.163C149.822 6.84767 149.906 6.48833 149.906 6.085C149.906 5.68167 149.822 5.326 149.653 5.018C149.485 4.70267 149.25 4.46067 148.949 4.292C148.656 4.12333 148.322 4.039 147.948 4.039C147.574 4.039 147.237 4.12333 146.936 4.292C146.643 4.46067 146.408 4.70267 146.232 5.018C146.064 5.326 145.979 5.68167 145.979 6.085C145.979 6.48833 146.064 6.84767 146.232 7.163C146.408 7.471 146.643 7.713 146.936 7.889C147.237 8.05767 147.574 8.142 147.948 8.142ZM152.434 0.838H153.49V9H152.434V0.838ZM158.003 9.066C157.424 9.066 156.903 8.93767 156.441 8.681C155.979 8.42433 155.616 8.07233 155.352 7.625C155.095 7.17033 154.967 6.657 154.967 6.085C154.967 5.513 155.095 5.00333 155.352 4.556C155.616 4.10133 155.979 3.74933 156.441 3.5C156.903 3.24333 157.424 3.115 158.003 3.115C158.582 3.115 159.099 3.24333 159.554 3.5C160.016 3.74933 160.375 4.10133 160.632 4.556C160.896 5.00333 161.028 5.513 161.028 6.085C161.028 6.657 160.896 7.17033 160.632 7.625C160.375 8.07233 160.016 8.42433 159.554 8.681C159.099 8.93767 158.582 9.066 158.003 9.066ZM158.003 8.142C158.377 8.142 158.711 8.05767 159.004 7.889C159.305 7.713 159.539 7.471 159.708 7.163C159.877 6.84767 159.961 6.48833 159.961 6.085C159.961 5.68167 159.877 5.326 159.708 5.018C159.539 4.70267 159.305 4.46067 159.004 4.292C158.711 4.12333 158.377 4.039 158.003 4.039C157.629 4.039 157.292 4.12333 156.991 4.292C156.698 4.46067 156.463 4.70267 156.287 5.018C156.118 5.326 156.034 5.68167 156.034 6.085C156.034 6.48833 156.118 6.84767 156.287 7.163C156.463 7.471 156.698 7.713 156.991 7.889C157.292 8.05767 157.629 8.142 158.003 8.142ZM168.065 3.17V8.208C168.065 9.22733 167.812 9.979 167.306 10.463C166.8 10.9543 166.045 11.2 165.04 11.2C164.49 11.2 163.966 11.123 163.467 10.969C162.969 10.8223 162.565 10.6097 162.257 10.331L162.763 9.517C163.035 9.75167 163.368 9.935 163.764 10.067C164.168 10.2063 164.582 10.276 165.007 10.276C165.689 10.276 166.192 10.1147 166.514 9.792C166.844 9.46933 167.009 8.978 167.009 8.318V7.856C166.76 8.15667 166.452 8.384 166.085 8.538C165.726 8.68467 165.334 8.758 164.908 8.758C164.351 8.758 163.845 8.64067 163.39 8.406C162.943 8.164 162.591 7.83033 162.334 7.405C162.078 6.97233 161.949 6.481 161.949 5.931C161.949 5.381 162.078 4.89333 162.334 4.468C162.591 4.03533 162.943 3.70167 163.39 3.467C163.845 3.23233 164.351 3.115 164.908 3.115C165.348 3.115 165.755 3.19567 166.129 3.357C166.511 3.51833 166.822 3.75667 167.064 4.072V3.17H168.065ZM165.029 7.834C165.411 7.834 165.752 7.75333 166.052 7.592C166.36 7.43067 166.599 7.207 166.767 6.921C166.943 6.62767 167.031 6.29767 167.031 5.931C167.031 5.36633 166.844 4.91167 166.47 4.567C166.096 4.215 165.616 4.039 165.029 4.039C164.435 4.039 163.951 4.215 163.577 4.567C163.203 4.91167 163.016 5.36633 163.016 5.931C163.016 6.29767 163.101 6.62767 163.269 6.921C163.445 7.207 163.684 7.43067 163.984 7.592C164.292 7.75333 164.641 7.834 165.029 7.834ZM175.242 3.17L172.415 9.583C172.166 10.177 171.872 10.595 171.535 10.837C171.205 11.079 170.805 11.2 170.336 11.2C170.05 11.2 169.771 11.1523 169.5 11.057C169.236 10.969 169.016 10.837 168.84 10.661L169.291 9.869C169.592 10.155 169.94 10.298 170.336 10.298C170.593 10.298 170.805 10.2283 170.974 10.089C171.15 9.957 171.308 9.726 171.447 9.396L171.634 8.989L169.06 3.17H170.16L172.195 7.834L174.208 3.17H175.242Z" fill="#02577A"/>
</svg>
